<svg width="732" height="898" viewBox="0 0 732 898" fill="none" xmlns="http://www.w3.org/2000/svg">
<g opacity="0.39" filter="url(#filter0_d)">
<path d="M246.398 341.935C246.398 328.045 251.068 317.131 260.408 309.193C265.872 304.384 277.874 300.981 286.894 298.986C293.732 297.473 300.613 300.653 304.385 306.553L440.04 518.81C440.916 520.181 442.788 520.489 444.058 519.472V519.472C445.128 518.614 445.398 517.098 444.691 515.924L433.63 497.548C430.287 491.994 428.52 485.635 428.52 479.153V314.569C428.52 304.77 436.394 297.701 446.016 299.558C455.2 301.329 465.487 303.974 470.124 307.492C479.746 314.579 484.558 325.068 484.558 338.959V563.473C484.558 573.962 480.029 583.033 470.973 590.687C466.491 594.597 458.611 597.508 451.975 599.421C445.053 601.416 437.882 598.211 434.007 592.138L291.086 368.159C290.139 366.674 288.084 366.396 286.776 367.576V367.576C285.762 368.489 285.538 369.993 286.242 371.162L297.327 389.576C300.67 395.129 302.436 401.489 302.436 407.97V560.071C302.436 573.962 297.625 584.45 288.002 591.537C283.724 594.783 274.637 597.286 266.044 599.045C255.639 601.175 246.398 592.888 246.398 582.268V341.935Z" fill="url(#paint0_radial)"/>
<path d="M259.503 308.147C249.817 316.384 245.016 327.704 245.016 341.935V582.268C245.016 593.674 254.974 602.723 266.321 600.4C270.644 599.515 275.118 598.438 279.065 597.165C282.975 595.904 286.497 594.412 288.829 592.646C298.861 585.253 303.819 574.317 303.819 560.071V407.97C303.819 401.237 301.984 394.631 298.511 388.863L287.427 370.449C287.065 369.847 287.18 369.073 287.701 368.603C288.375 367.995 289.433 368.139 289.92 368.903L432.842 592.882C437.003 599.403 444.773 602.935 452.358 600.75C458.988 598.839 467.136 595.864 471.874 591.736C481.19 583.859 485.941 574.421 485.941 563.473V338.959C485.941 324.714 480.984 313.777 470.952 306.385C468.429 304.473 464.504 302.878 460.182 301.548C455.816 300.206 450.895 299.091 446.278 298.2C435.729 296.165 427.138 303.977 427.138 314.569V479.153C427.138 485.886 428.972 492.492 432.445 498.261L443.507 516.637C443.856 517.218 443.723 517.968 443.193 518.392C442.565 518.896 441.639 518.743 441.205 518.065L305.55 305.809C301.495 299.464 294.05 295.986 286.596 297.635C282.057 298.64 276.741 300.003 271.856 301.731C267.015 303.443 262.443 305.564 259.503 308.147Z" stroke="url(#paint1_radial)" stroke-width="2.76551" stroke-linejoin="round"/>
</g>
<g opacity="0.39" filter="url(#filter1_d)">
<path d="M212.826 311.62C212.826 293.816 218.813 279.827 230.785 269.653C238.454 262.903 256.169 258.316 267.915 255.889C274.773 254.473 281.643 257.637 285.415 263.537L461.063 538.336C462.186 540.093 464.585 540.489 466.213 539.185V539.185C467.584 538.086 467.932 536.142 467.025 534.637L451.405 508.692C448.062 503.138 446.295 496.778 446.295 490.295V271.554C446.295 261.754 454.156 254.717 463.81 256.401C476.599 258.631 492.839 262.321 499.628 267.472C511.964 276.556 518.132 290.001 518.132 307.805V595.585C518.132 609.029 512.327 620.656 500.717 630.467C494.221 636.133 482.158 640.163 473.126 642.557C466.163 644.402 459.008 641.227 455.133 635.155L270.113 345.234C268.898 343.331 266.265 342.974 264.588 344.486V344.486C263.288 345.657 263.001 347.585 263.904 349.084L279.553 375.077C282.896 380.631 284.663 386.991 284.663 393.473V591.224C284.663 609.029 278.495 622.473 266.159 631.557C259.747 636.423 244.903 639.985 232.5 642.245C222.052 644.148 212.826 635.904 212.826 625.284V311.62Z" fill="url(#paint2_radial)"/>
<path d="M229.881 268.607C217.562 279.079 211.443 293.475 211.443 311.62V625.284C211.443 636.703 221.39 645.674 232.748 643.605C238.974 642.471 245.838 641.005 251.966 639.205C258.043 637.419 263.564 635.259 266.986 632.666C279.732 623.276 286.046 609.384 286.046 591.224V393.473C286.046 386.739 284.21 380.133 280.737 374.364L265.088 348.37C264.528 347.439 264.706 346.241 265.513 345.513C266.556 344.573 268.192 344.795 268.947 345.978L453.968 635.899C458.134 642.426 465.879 645.908 473.48 643.893C478.029 642.688 483.364 641.065 488.393 639.02C493.398 636.986 498.199 634.495 501.617 631.517C513.487 621.483 519.514 609.489 519.514 595.585V307.805C519.514 289.646 513.201 275.754 500.457 266.365C496.838 263.623 490.863 261.359 484.347 259.511C477.775 257.647 470.466 256.158 464.048 255.038C453.494 253.198 444.912 260.951 444.912 271.554V490.295C444.912 497.029 446.748 503.636 450.221 509.405L465.841 535.35C466.39 536.262 466.179 537.44 465.349 538.105C464.362 538.896 462.909 538.656 462.228 537.591L286.58 262.792C282.522 256.444 275.094 252.994 267.636 254.535C261.735 255.754 254.311 257.52 247.383 259.838C240.505 262.14 233.937 265.041 229.881 268.607Z" stroke="url(#paint3_radial)" stroke-width="2.76551" stroke-linejoin="round"/>
</g>
<g opacity="0.39" filter="url(#filter2_d)">
<path d="M178.205 280.567C178.205 258.753 185.549 241.613 200.237 229.148C210.222 220.371 234.09 214.578 248.353 211.768C255.218 210.415 262.08 213.567 265.852 219.46L482.745 558.342C484.122 560.494 487.062 560.979 489.057 559.382V559.382C490.741 558.034 491.168 555.648 490.054 553.801L469.747 520.113C466.396 514.556 464.626 508.189 464.626 501.7V227.489C464.626 217.69 472.477 210.663 482.149 212.243C498.271 214.875 521.006 219.62 530.055 226.477C545.189 237.606 552.755 254.078 552.755 275.892V628.48C552.755 644.952 545.634 659.198 531.39 671.218C522.776 678.723 506.18 683.884 494.928 686.704C487.945 688.453 480.796 685.298 476.92 679.232L248.483 321.747C246.993 319.416 243.767 318.979 241.71 320.83V320.83C240.114 322.266 239.762 324.634 240.871 326.473L261.214 360.219C264.564 365.777 266.335 372.143 266.335 378.633V623.138C266.335 644.952 258.768 661.424 243.635 672.554C234.983 679.109 213.824 683.734 197.892 686.428C187.422 688.199 178.205 679.971 178.205 669.352V280.567Z" fill="url(#paint4_radial)"/>
<path d="M199.334 228.101C184.299 240.865 176.822 258.411 176.822 280.567V669.352C176.822 680.776 186.76 689.713 198.123 687.792C206.111 686.441 215.435 684.602 223.862 682.272C232.228 679.958 239.906 677.11 244.461 673.662C260.004 662.227 267.717 645.307 267.717 623.138V378.633C267.717 371.892 265.878 365.278 262.398 359.505L242.055 325.759C241.288 324.487 241.532 322.851 242.635 321.858C244.057 320.578 246.288 320.88 247.318 322.492L475.755 679.977C479.924 686.502 487.659 689.95 495.264 688.045C500.922 686.627 507.944 684.616 514.65 682.007C521.327 679.408 527.802 676.175 532.29 672.268C546.794 660.025 554.138 645.413 554.138 628.48V275.892C554.138 253.723 546.425 236.803 530.883 225.369C526.122 221.765 517.942 218.812 509.113 216.44C500.22 214.051 490.455 212.198 482.372 210.878C471.814 209.154 463.243 216.883 463.243 227.489V501.7C463.243 508.441 465.082 515.054 468.562 520.827L488.87 554.514C489.625 555.768 489.336 557.388 488.193 558.302C486.839 559.386 484.844 559.057 483.909 557.596L267.017 218.715C262.957 212.372 255.541 208.942 248.085 210.411C240.928 211.821 231.337 213.984 222.267 216.904C213.255 219.806 204.557 223.515 199.334 228.101Z" stroke="url(#paint5_radial)" stroke-width="2.76551" stroke-linejoin="round"/>
</g>
<g opacity="0.39" filter="url(#filter3_d)">
<path d="M140.434 246.555C140.434 220.349 149.259 199.759 166.909 184.785C179.457 173.759 210.252 166.652 227.008 163.465C233.88 162.157 240.736 165.304 244.509 171.196L506.393 580.25C508.049 582.836 511.58 583.418 513.977 581.5V581.5C516.002 579.881 516.514 577.013 515.175 574.793L489.743 532.617C486.391 527.058 484.62 520.69 484.62 514.199V179.228C484.62 169.428 492.476 162.409 502.159 163.916C521.587 166.94 551.694 172.826 563.245 181.576C581.431 194.946 590.523 214.734 590.523 240.94V664.508C590.523 684.296 581.965 701.41 564.85 715.85C553.883 725.4 532.153 731.792 518.695 735.026C511.698 736.708 504.56 733.56 500.684 727.497L224.884 296.025C223.094 293.224 219.218 292.699 216.748 294.923V294.923C214.829 296.649 214.406 299.494 215.739 301.704L241.214 343.951C244.566 349.51 246.337 355.878 246.337 362.369V658.09C246.337 684.296 237.244 704.084 219.059 717.454C207.927 725.887 179.561 731.66 160.128 734.774C149.643 736.454 140.434 728.232 140.434 717.614V246.555Z" fill="url(#paint6_radial)"/>
<path d="M166.006 183.738C148.009 199.011 139.051 220.008 139.051 246.555V717.614C139.051 729.042 148.981 737.961 160.347 736.14C170.085 734.579 182.085 732.349 193.06 729.445C203.967 726.56 214.079 722.957 219.886 718.563C238.481 704.887 247.72 684.651 247.72 658.09V362.369C247.72 355.626 245.88 349.011 242.398 343.237L216.923 300.99C215.932 299.348 216.247 297.233 217.673 295.951C219.509 294.298 222.389 294.688 223.719 296.77L499.519 728.241C503.69 734.766 511.408 738.199 519.019 736.371C525.778 734.746 534.635 732.324 543.194 729.101C551.72 725.89 560.076 721.837 565.748 716.901C583.125 702.238 591.906 684.757 591.906 664.508V240.94C591.906 214.379 582.667 194.143 564.073 180.468C558.052 175.911 547.392 172.201 536.002 169.26C524.54 166.3 512.107 164.065 502.372 162.549C491.814 160.906 483.237 168.617 483.237 179.228V514.199C483.237 520.942 485.077 527.557 488.559 533.331L513.991 575.507C514.972 577.133 514.597 579.234 513.114 580.42C511.357 581.825 508.771 581.399 507.558 579.505L245.673 170.451C241.613 164.108 234.206 160.688 226.749 162.106C218.346 163.705 206.401 166.29 194.968 169.866C183.597 173.422 172.518 178.021 166.006 183.738Z" stroke="url(#paint7_radial)" stroke-width="2.76551" stroke-linejoin="round"/>
</g>
<g opacity="0.39" filter="url(#filter4_d)">
<path d="M99.7207 209.465C99.7207 178.504 110.147 154.176 130.998 136.484C146.351 122.992 184.826 114.467 204.051 110.909C210.931 109.636 217.776 112.782 221.548 118.674L532.053 603.723C534.009 606.779 538.18 607.466 541.013 605.2V605.2C543.404 603.287 544.01 599.899 542.428 597.276L511.453 545.903C508.102 540.344 506.331 533.977 506.331 527.486V126.705C506.331 116.905 514.184 109.888 523.875 111.342C546.581 114.748 584.923 121.865 599.216 132.693C620.699 148.49 631.441 171.869 631.441 202.831V703.273C631.441 726.653 621.331 746.873 601.111 763.933C587.57 775.727 560.137 783.445 544.491 787.086C537.481 788.717 530.345 785.574 526.469 779.51L199.488 267.914C197.373 264.605 192.794 263.984 189.875 266.612V266.612C187.609 268.651 187.109 272.012 188.683 274.623L219.709 326.08C223.06 331.639 224.831 338.006 224.831 344.497V695.691C224.831 726.653 214.09 750.032 192.606 765.829C178.755 776.322 142.321 783.33 119.417 786.853C108.922 788.467 99.7207 780.247 99.7207 769.628V209.465Z" fill="url(#paint8_radial)"/>
<path d="M130.095 135.437C108.896 153.428 98.3379 178.162 98.3379 209.465V769.628C98.3379 781.058 108.259 789.968 119.627 788.22C131.1 786.455 145.984 783.814 159.749 780.294C173.44 776.793 186.259 772.368 193.433 766.937C215.326 750.835 226.214 727.008 226.214 695.691V344.497C226.214 337.754 224.374 331.14 220.893 325.366L189.867 273.909C188.635 271.865 189.027 269.235 190.8 267.639C193.084 265.583 196.668 266.069 198.323 268.659L525.304 780.255C529.476 786.782 537.189 790.204 544.805 788.432C552.657 786.605 563.487 783.751 574.067 779.865C584.611 775.992 595.045 771.047 602.011 764.983C622.491 747.7 632.824 727.113 632.824 703.273V202.831C632.824 171.513 621.936 147.686 600.042 131.584C592.643 125.983 579.23 121.447 565.036 117.893C550.764 114.319 535.453 111.681 524.08 109.975C513.521 108.391 504.948 116.092 504.948 126.705V527.486C504.948 534.228 506.788 540.843 510.269 546.617L541.244 597.99C542.467 600.019 541.999 602.64 540.149 604.12C537.958 605.873 534.731 605.341 533.217 602.978L222.712 117.929C218.652 111.585 211.259 108.169 203.8 109.549C194.162 111.333 179.68 114.365 165.668 118.649C151.723 122.913 138.015 128.482 130.095 135.437Z" stroke="url(#paint9_radial)" stroke-width="2.76551" stroke-linejoin="round"/>
</g>
<g opacity="0.39" filter="url(#filter5_d)">
<path d="M63 176.344C63 141.106 74.8659 113.419 98.5977 93.2829C116.071 77.9275 159.86 68.225 181.741 64.1756C189.57 62.7265 197.361 66.3067 201.654 73.0131L555.046 625.057C557.272 628.535 562.02 629.317 565.244 626.738V626.738C567.965 624.561 568.654 620.704 566.854 617.72L531.601 559.251C527.786 552.924 525.771 545.677 525.771 538.29V82.1531C525.771 70.9998 534.709 63.0139 545.739 64.6685C571.58 68.5449 615.219 76.6448 631.485 88.968C655.936 106.947 668.162 133.555 668.162 168.793V738.357C668.162 764.966 656.655 787.978 633.643 807.395C618.231 820.818 587.009 829.602 569.202 833.745C561.224 835.602 553.102 832.026 548.691 825.124L176.547 242.866C174.14 239.1 168.929 238.394 165.606 241.384V241.384C163.027 243.705 162.458 247.53 164.25 250.501L199.561 309.066C203.375 315.392 205.391 322.639 205.391 330.026V729.727C205.391 764.966 193.165 791.574 168.715 809.553C152.95 821.495 111.484 829.471 85.4168 833.481C73.472 835.318 63 825.962 63 813.877V176.344Z" fill="url(#paint10_radial)"/>
<path d="M97.5693 92.0917C73.4429 112.568 61.4263 140.717 61.4263 176.344V813.877C61.4263 826.885 72.7172 837.026 85.656 835.036C98.7131 833.028 115.653 830.022 131.319 826.016C146.902 822.031 161.494 816.994 169.658 810.813C194.573 792.487 206.965 765.369 206.965 729.727V330.026C206.965 322.353 204.871 314.825 200.909 308.253L165.598 249.689C164.195 247.363 164.641 244.37 166.659 242.553C169.259 240.214 173.338 240.766 175.221 243.713L547.365 825.971C552.113 833.4 560.892 837.295 569.559 835.278C578.496 833.198 590.822 829.95 602.863 825.527C614.864 821.12 626.739 815.492 634.667 808.59C657.976 788.92 669.735 765.49 669.735 738.357V168.793C669.735 133.15 657.343 106.031 632.425 87.7057C624.004 81.3313 608.738 76.1691 592.585 72.1241C576.342 68.0566 558.916 65.0538 545.972 63.1121C533.955 61.3095 524.197 70.0744 524.197 82.1531V538.29C524.197 545.964 526.291 553.492 530.253 560.063L565.507 618.532C566.899 620.841 566.366 623.825 564.261 625.509C561.766 627.504 558.093 626.899 556.371 624.209L202.979 72.1646C198.358 64.9453 189.944 61.057 181.454 62.6281C170.486 64.658 154.004 68.1087 138.056 72.9845C122.185 77.8372 106.583 84.176 97.5693 92.0917Z" stroke="url(#paint11_radial)" stroke-width="3.14748" stroke-linejoin="round"/>
</g>
<defs>
<filter id="filter0_d" x="183.831" y="236.042" width="363.295" height="426.541" filterUnits="userSpaceOnUse" color-interpolation-filters="sRGB">
<feFlood flood-opacity="0" result="BackgroundImageFix"/>
<feColorMatrix in="SourceAlpha" type="matrix" values="0 0 0 0 0 0 0 0 0 0 0 0 0 0 0 0 0 0 127 0" result="hardAlpha"/>
<feOffset/>
<feGaussianBlur stdDeviation="29.9011"/>
<feColorMatrix type="matrix" values="0 0 0 0 0.0720486 0 0 0 0 0.307076 0 0 0 0 0.691667 0 0 0 1 0"/>
<feBlend mode="normal" in2="BackgroundImageFix" result="effect1_dropShadow"/>
<feBlend mode="normal" in="SourceGraphic" in2="effect1_dropShadow" result="shape"/>
</filter>
<filter id="filter1_d" x="150.258" y="192.985" width="430.441" height="512.664" filterUnits="userSpaceOnUse" color-interpolation-filters="sRGB">
<feFlood flood-opacity="0" result="BackgroundImageFix"/>
<feColorMatrix in="SourceAlpha" type="matrix" values="0 0 0 0 0 0 0 0 0 0 0 0 0 0 0 0 0 0 127 0" result="hardAlpha"/>
<feOffset/>
<feGaussianBlur stdDeviation="29.9011"/>
<feColorMatrix type="matrix" values="0 0 0 0 0.0720486 0 0 0 0 0.307076 0 0 0 0 0.691667 0 0 0 1 0"/>
<feBlend mode="normal" in2="BackgroundImageFix" result="effect1_dropShadow"/>
<feBlend mode="normal" in="SourceGraphic" in2="effect1_dropShadow" result="shape"/>
</filter>
<filter id="filter2_d" x="115.637" y="148.888" width="499.685" height="600.865" filterUnits="userSpaceOnUse" color-interpolation-filters="sRGB">
<feFlood flood-opacity="0" result="BackgroundImageFix"/>
<feColorMatrix in="SourceAlpha" type="matrix" values="0 0 0 0 0 0 0 0 0 0 0 0 0 0 0 0 0 0 127 0" result="hardAlpha"/>
<feOffset/>
<feGaussianBlur stdDeviation="29.9011"/>
<feColorMatrix type="matrix" values="0 0 0 0 0.0720486 0 0 0 0 0.307076 0 0 0 0 0.691667 0 0 0 1 0"/>
<feBlend mode="normal" in2="BackgroundImageFix" result="effect1_dropShadow"/>
<feBlend mode="normal" in="SourceGraphic" in2="effect1_dropShadow" result="shape"/>
</filter>
<filter id="filter3_d" x="77.8658" y="100.603" width="575.225" height="697.442" filterUnits="userSpaceOnUse" color-interpolation-filters="sRGB">
<feFlood flood-opacity="0" result="BackgroundImageFix"/>
<feColorMatrix in="SourceAlpha" type="matrix" values="0 0 0 0 0 0 0 0 0 0 0 0 0 0 0 0 0 0 127 0" result="hardAlpha"/>
<feOffset/>
<feGaussianBlur stdDeviation="29.9011"/>
<feColorMatrix type="matrix" values="0 0 0 0 0.0720486 0 0 0 0 0.307076 0 0 0 0 0.691667 0 0 0 1 0"/>
<feBlend mode="normal" in2="BackgroundImageFix" result="effect1_dropShadow"/>
<feBlend mode="normal" in="SourceGraphic" in2="effect1_dropShadow" result="shape"/>
</filter>
<filter id="filter4_d" x="37.153" y="48.0604" width="656.856" height="802.022" filterUnits="userSpaceOnUse" color-interpolation-filters="sRGB">
<feFlood flood-opacity="0" result="BackgroundImageFix"/>
<feColorMatrix in="SourceAlpha" type="matrix" values="0 0 0 0 0 0 0 0 0 0 0 0 0 0 0 0 0 0 127 0" result="hardAlpha"/>
<feOffset/>
<feGaussianBlur stdDeviation="29.9011"/>
<feColorMatrix type="matrix" values="0 0 0 0 0.0720486 0 0 0 0 0.307076 0 0 0 0 0.691667 0 0 0 1 0"/>
<feBlend mode="normal" in2="BackgroundImageFix" result="effect1_dropShadow"/>
<feBlend mode="normal" in="SourceGraphic" in2="effect1_dropShadow" result="shape"/>
</filter>
<filter id="filter5_d" x="0.0494385" y="0.906128" width="731.061" height="896.277" filterUnits="userSpaceOnUse" color-interpolation-filters="sRGB">
<feFlood flood-opacity="0" result="BackgroundImageFix"/>
<feColorMatrix in="SourceAlpha" type="matrix" values="0 0 0 0 0 0 0 0 0 0 0 0 0 0 0 0 0 0 127 0" result="hardAlpha"/>
<feOffset/>
<feGaussianBlur stdDeviation="29.9011"/>
<feColorMatrix type="matrix" values="0 0 0 0 0.0720486 0 0 0 0 0.307076 0 0 0 0 0.691667 0 0 0 1 0"/>
<feBlend mode="normal" in2="BackgroundImageFix" result="effect1_dropShadow"/>
<feBlend mode="normal" in="SourceGraphic" in2="effect1_dropShadow" result="shape"/>
</filter>
<radialGradient id="paint0_radial" cx="0" cy="0" r="1" gradientUnits="userSpaceOnUse" gradientTransform="translate(365.478 449.515) rotate(89.8681) scale(319.386 249.143)">
<stop stop-color="#57B8F1"/>
<stop offset="1" stop-color="#0D037B"/>
</radialGradient>
<radialGradient id="paint1_radial" cx="0" cy="0" r="1" gradientUnits="userSpaceOnUse" gradientTransform="translate(365.478 449.515) rotate(89.8681) scale(319.386 249.143)">
<stop stop-color="#6DBDED"/>
<stop offset="1" stop-color="#786DF6"/>
</radialGradient>
<radialGradient id="paint2_radial" cx="0" cy="0" r="1" gradientUnits="userSpaceOnUse" gradientTransform="translate(365.479 449.515) rotate(89.8681) scale(409.384 319.386)">
<stop stop-color="#57B8F1"/>
<stop offset="1" stop-color="#0D037B"/>
</radialGradient>
<radialGradient id="paint3_radial" cx="0" cy="0" r="1" gradientUnits="userSpaceOnUse" gradientTransform="translate(365.479 449.515) rotate(89.8681) scale(409.384 319.386)">
<stop stop-color="#6DBDED"/>
<stop offset="1" stop-color="#786DF6"/>
</radialGradient>
<radialGradient id="paint4_radial" cx="0" cy="0" r="1" gradientUnits="userSpaceOnUse" gradientTransform="translate(365.48 449.515) rotate(89.8679) scale(501.578 391.824)">
<stop stop-color="#57B8F1"/>
<stop offset="1" stop-color="#0D037B"/>
</radialGradient>
<radialGradient id="paint5_radial" cx="0" cy="0" r="1" gradientUnits="userSpaceOnUse" gradientTransform="translate(365.48 449.515) rotate(89.8679) scale(501.578 391.824)">
<stop stop-color="#6DBDED"/>
<stop offset="1" stop-color="#786DF6"/>
</radialGradient>
<radialGradient id="paint6_radial" cx="0" cy="0" r="1" gradientUnits="userSpaceOnUse" gradientTransform="translate(365.478 449.515) rotate(89.8679) scale(602.552 470.847)">
<stop stop-color="#57B8F1"/>
<stop offset="1" stop-color="#0D037B"/>
</radialGradient>
<radialGradient id="paint7_radial" cx="0" cy="0" r="1" gradientUnits="userSpaceOnUse" gradientTransform="translate(365.478 449.515) rotate(89.8679) scale(602.552 470.847)">
<stop stop-color="#6DBDED"/>
<stop offset="1" stop-color="#786DF6"/>
</radialGradient>
<radialGradient id="paint8_radial" cx="0" cy="0" r="1" gradientUnits="userSpaceOnUse" gradientTransform="translate(365.581 449.261) rotate(89.8679) scale(711.911 556.242)">
<stop stop-color="#57B8F1"/>
<stop offset="1" stop-color="#0D037B"/>
</radialGradient>
<radialGradient id="paint9_radial" cx="0" cy="0" r="1" gradientUnits="userSpaceOnUse" gradientTransform="translate(365.581 449.261) rotate(89.8679) scale(711.911 556.242)">
<stop stop-color="#6DBDED"/>
<stop offset="1" stop-color="#786DF6"/>
</radialGradient>
<radialGradient id="paint10_radial" cx="0" cy="0" r="1" gradientUnits="userSpaceOnUse" gradientTransform="translate(365.581 449.26) rotate(89.8679) scale(810.24 633.071)">
<stop stop-color="#57B8F1"/>
<stop offset="1" stop-color="#0D037B"/>
</radialGradient>
<radialGradient id="paint11_radial" cx="0" cy="0" r="1" gradientUnits="userSpaceOnUse" gradientTransform="translate(365.581 449.26) rotate(89.8679) scale(810.24 633.071)">
<stop stop-color="#6DBDED"/>
<stop offset="1" stop-color="#786DF6"/>
</radialGradient>
</defs>
</svg>
